<svg style="display:none;" id="sprite" xmlns="http://www.w3.org/2000/svg" xmlns:xlink="http://www.w3.org/1999/xlink">
  <symbol id="head" viewBox="0 0 291.78 365.75">
    <path d="M145.1 217.99"/>
    <path d="M145.1 336.99c-74.44 0-135-60.56-135-135s60.56-135 135-135 135 60.56 135 135S219.54 336.99 145.1 336.99zM145.1 70.99c-72.23 0-131 58.77-131 131s58.77 131 131 131 131-58.77 131-131S217.33 70.99 145.1 70.99z"/>
    <path d="M225.09 238.65c-41.48-1.17-77.8-20.67-77.8-20.67s-36.48 18.5-70.3 20c-33.81 1.5-63.89-7.33-63.89-7.33s-1.5 23.58 8.5 52.58 66.61 57.42 66.61 57.42l-1.94-8.67 54.88 32.5c0 0 3.23-9.33 16.79-19.17 13.56-9.83 28.57-1.83 43.91-10.33s15.33-13.67 15.33-13.67v13.67c0 0 30.67-16.5 44.07-46 13.4-29.5 14.85-58.33 14.85-58.33S266.57 239.82 225.09 238.65zM145.1 291.49c-37 0-44-27-44-27s23.5 3.5 44 4 46.5-4 46.5-4S182.1 291.49 145.1 291.49z"/>
    <path d="M89.57 169.19c10.53 0 19.06 8.53 19.06 19.06h12.94c0-17.67-14.33-32-32-32s-32 14.33-32 32h12.94C70.51 177.72 79.05 169.19 89.57 169.19z"/>
    <path d="M209.58 169.19c10.53 0 19.06 8.53 19.06 19.06h12.94c0-17.67-14.33-32-32-32 -17.67 0-32 14.33-32 32h12.94C190.51 177.72 199.05 169.19 209.58 169.19z"/>
    <path d="M7.32 207.32l20.11-4.67c0 0 0.79-43.59 10.07-64.63s25.96-27.29 25.96-27.29 33.11 3.75 83.16-1.75c50.05-5.5 63.89-16 63.89-16s26.2 19 41.6 42.5c15.4 23.5 14.74 67.17 14.74 67.17l16.63 4.67c0 0 15.69-61.33 1.49-86.33s-22.59-35-65.71-59c-43.12-24-54.41-59.33-54.41-59.33s-42.51 39.79-82.13 58.83 -43.63 17-68.27 44.5C-10.2 133.49 7.32 207.32 7.32 207.32z"/>
  </symbol>
  <symbol id="linkedin" viewBox="0 0 216 216">
    <path d="M200 0H15.94C7.14 0 0 6.98 0 15.56v184.85c0 8.6 7.15 15.59 15.94 15.59H200c8.81 0 16-6.98 16-15.59V15.56C216 6.98 208.81 0 200 0zM64.06 184.06H32.01V80.98H64.06V184.06zM48.04 66.89c-10.27 0-18.57-8.32-18.57-18.58 0-10.25 8.3-18.57 18.57-18.57 10.24 0 18.57 8.32 18.57 18.57C66.6 58.57 58.28 66.89 48.04 66.89zM184.05 184.06h-32v-50.12c0-11.96-0.23-27.34-16.65-27.34 -16.67 0-19.21 13.02-19.21 26.47v50.99H84.15V80.98h30.73v14.08h0.44c4.28-8.1 14.73-16.65 30.32-16.65 32.42 0 38.41 21.34 38.41 49.11V184.06z"/>
  </symbol>
</svg>
