<svg version="1" xmlns="http://www.w3.org/2000/svg" width="1354.667" height="1354.667" viewBox="0 0 1016.000000 1016.000000"><path d="M557 4.1c-1.9 1.7-5.3 4.7-7.5 6.7-30.6 28-81 68-118.5 94.3-43.8 30.6-77.4 50-123.5 71.4-13.2 6.1-32.6 15-39 17.9-52.6 23.8-71.1 36-102.5 67.5-17.9 18-27.6 28.5-34 37.1-4.8 6.5-14 24.8-17.1 34-3.1 9.5-7.6 28.3-8.9 37.5-.6 4.4-1.3 9.1-1.5 10.5-3 19.7-3.5 65.4-.9 93.5 1 10.5 1.2 12.9 1.9 19.5.3 3.6.8 8 1.1 9.7.2 1.8.6 4.8.8 6.5 1.9 14.5 2 15 3.6 25.3.9 5.6 3.8 21.4 5.5 29.5.1.8.6 3.4 1 5.8l.7 4.3 4.4-.7 4.4-.6.1 4.3c.1 10.9 2.9 36.5 4.9 45.9.5 2.5 1.3 5.8 1.6 7.5.4 1.6.8 8.4 1 15 .3 14.2 1.3 33.8 1.9 38 .2 1.6.6 5.7 1 9 .3 3.3.7 7.1.9 8.5.3 1.4 1 5.9 1.6 10 5.2 34.2 16 72.3 25.7 91.1 6.2 12.1 18.3 28.2 30.6 40.8 12.5 12.8 16.6 16.5 36.2 32.9 1.1.9 6.7 5.2 12.5 9.5s11.2 8.4 12 9.1c5.7 4.5 43.5 28.8 54.8 35.2 2 1.2 6.6 3.8 10.2 5.8 11.8 6.8 23.1 12.8 23.5 12.4.2-.2-.7-5.3-2.1-11.2-1.3-6-2.2-11.1-2-11.3.2-.3 4.2 1.7 8.8 4.5 71.1 42.1 89.2 52.8 93.3 55.2 1.7 1 13.8 8.1 26.9 15.9 23.2 13.8 25.5 14.7 25.6 10.8 0-1.4 8.4-14.2 13.3-20.2 9.5-11.7 26.1-26.4 37.5-33.5 13.1-8 28.3-11.6 53.7-12.5 12.8-.5 24.9-1.3 28.5-2 1.4-.2 4.3-.7 6.6-1 15.3-2.1 37.4-12.9 55.4-27.3 5.7-4.5 13.9-13.2 14.6-15.4 1.5-4.8 2.2-.3 2.2 14.4 0 9 .1 16.7.1 17.1.1.9 6-2.3 15.1-8.2 5.6-3.6 24.1-17 25-18 .3-.3 2.8-2.4 5.5-4.6 8-6.3 12.2-10.3 24.5-22.5 29.1-29.1 45.3-53.5 60.5-91.5 15.6-39 26.7-81.3 32-122 .4-2.8 1.1-6.8 1.7-9 2-7.8 6.5-29.6 7.3-35 .3-2.3.7-5 .9-6.2.3-1.2.8-5.3 1.1-9 .4-3.7.9-7.7 1.1-8.8.2-1.1.7-7 1-13 .3-6.1.7-11.1.9-11.3.2-.2 2.2.2 4.5.8 2.3.6 4.5.9 4.8.6 1.6-1.6 11.8-54.3 14.7-76.1.9-6.6 1.8-13.1 2-14.5.7-4.6 1.7-15.1 3.1-33.5 1.5-19.1.9-59.5-1.1-69.5-.2-1.3-.7-4.2-1.1-6.5-.6-4-2.4-12.5-4.3-20-1-3.9-2.7-8.5-5.9-15.5-2.3-5.2-12.7-23.3-18.9-32.8-2.9-4.5-5.3-8.5-5.3-8.8 0-.3-.5-1-1-1.7-.6-.7-5.1-6.8-10.2-13.7-22.4-30.3-51.3-54.7-101.8-85.7-12.3-7.5-49.8-29.3-50.6-29.3-.7 0-23.7-14.2-30.4-18.9-30.9-21.3-58.3-46.9-79.7-74.4-8.4-10.7-21.1-28.9-22.1-31.6-.3-.9-.8-1.8-1.1-2.1-1.5-1.3-12.2-22.4-15.8-31-1.4-3.6-2.9-6.8-3.2-7.2-.3-.4-2.2.7-4.1 2.3zm136.8 254.1c2.6 1.7 4.9 3.4 5.2 3.8.3.3 5.3 4.5 11.2 9.3 5.8 4.8 11.2 9.2 12 9.9.7.7 3.8 3.5 6.8 6.2 37.4 33.6 69.3 71.2 84.4 99.6 6.5 12.3 17.1 41 19.1 51.7.2 1.4.9 3.9 1.4 5.6 1.4 4.5 5.5 25.8 6.7 34.7.3 2.5.7 5.2.9 6 .2.8.7 4.2 1 7.5.4 3.3.8 7.1 1 8.5.4 2.7 1.3 12 2 21.5.3 3.3.7 13.4 1.1 22.5.3 9.1.9 16.8 1.3 17.1.3.3 6.1 2.1 12.8 4l12.1 3.3-.3 7.6c-.3 7.7-1.3 20.6-2 25-.2 1.4-.7 4.9-1 7.9-.4 3-.8 6.1-1 7-.1.9-.6 3.6-1 6.1-1.1 6.5-2.8 15.3-4.1 20.2-.1.5-.2 1.2-.3 1.8 0 .5-1.4 1.6-2.9 2.4-3.3 1.7-17.9 6.5-21.9 7.2-1.5.3-3.7.8-4.8 1.1-1.1.4-2.7.7-3.5.9-.8.1-6.2.9-12 1.9-10.9 1.7-11.9 1.8-26 3.1-17.4 1.7-85.8.9-96.1-1.1-1.2-.2-4.7-.7-7.8-1-3.1-.4-6.3-.8-7.1-1.1-.8-.2-3.5-.6-6-.9-2.5-.3-6.7-1-9.5-1.5-2.7-.5-6.1-1.1-7.5-1.4-37.2-6.4-94.8-25.2-133.9-43.7-6.8-3.3-12.5-5.9-12.7-5.9-.2 0-5.1 2.3-10.9 5-5.8 2.7-10.8 5-11.1 5-.2 0-2.7 1.1-5.6 2.5-2.8 1.4-5.6 2.5-6.1 2.5-.4 0-3.2 1.1-6 2.3-11.5 5.2-45.1 16.7-70.7 24.1-4.5 1.3-13.8 3.5-21 5.1-.8.2-3.5.8-6 1.4-2.5.5-6.1 1.3-8 1.6-1.9.3-4.2.8-5 1-.8.2-3.5.7-6 1-2.5.3-7 1-10 1.5s-8.2 1.1-11.5 1.5c-3.3.3-8.5.8-11.5 1.1-7.8.7-51.9.7-61.5-.1-4.4-.3-10.5-.8-13.5-1-10.2-.8-18.2-1.6-28.7-3-6.7-.8-24.7-3.5-27.3-4-1.4-.3-3.8-.7-5.5-1-1.6-.3-5.2-1-8-1.5-2.7-.5-6.1-1.1-7.5-1.4-7.4-1.3-21.5-4.7-22.1-5.3-.6-.7-3.5-14.2-4.5-20.8-.2-1.1-.8-4.7-1.3-8-1.8-10.8-3.8-32.5-3.7-40.4.1-3.7 1.1-4.3 9.6-5.6 1.9-.3 4.9-1 6.5-1.5 1.7-.5 4.1-1.1 5.5-1.4 1.4-.2 4.8-1 7.5-1.6 2.8-.7 5.7-1.3 6.5-1.4 1-.2 1.5-1.9 1.6-6.2.3-9.5 1.4-31.5 1.9-36.9.2-2.8.7-7.9 1-11.5.6-7 1.4-15.3 2-21 .3-1.9.7-6.2 1.1-9.5.3-3.3.8-6.9 1-8 .2-1.1.6-4.5.9-7.5.4-3 .8-6.2 1.1-7.1.2-.9.7-3.4.9-5.5.5-3.7 1.1-6.9 1.9-10.9.2-1.1 1.1-5.6 2-10 2.9-14.1 7.6-30.7 11.7-41 12.9-32.8 35.5-60.4 62.9-76.6 9.9-5.9 12.2-6.8 15.6-6.4 26 3.4 110.2 3.9 156.9 1 14.4-.9 25.3-1.6 29.5-2 2.5-.2 7.7-.7 11.5-1 11.7-1 24.7-2.2 30.5-2.9 1.9-.3 6-.7 9-1.1 3-.3 8.7-1 12.5-1.5 3.9-.5 9.3-1.2 12-1.6 5.2-.6 6.3-.8 13-1.9 2.2-.3 5.4-.8 7-1.1 1.7-.2 6.6-1.1 11-1.9 4.4-.8 9.4-1.7 11-1.9 2.5-.5 11.2-2.3 24-5.1 19.5-4.3 43.3-11.4 58.1-17.3 7.8-3.1 20.3-9.3 21-10.3.9-1.5 2.3-1 7.2 2.3zM399 737.9c4.1.6 9.8 1.3 12.5 1.6 2.8.3 6.4.8 8 1 1.7.2 5.7.7 9 1 3.3.3 7.8.8 10 1 4.1.5 14.4 1.4 22.5 2 21.6 1.7 30 2 54.5 1.9 24.4 0 35.7-.4 50.5-1.9 1.9-.2 6.7-.7 10.5-1 3.9-.3 8.1-.8 9.5-1 1.4-.2 5-.6 8-1 3-.3 7.1-.8 9-1 3.7-.5 23.2-3.2 28.8-4.1 4.1-.7 4.1.3-.5 8.5-16.6 29.9-45.8 51.7-81.2 60.7-16.5 4.2-26.1 5.2-47.1 4.9-21.6-.3-32.4-1.8-47.9-6.7-33.1-10.5-58.9-33.2-70.6-62l-2.4-6 4.7.6c2.6.3 8.1 1 12.2 1.5z"/><path d="M344.7 431.6c-.1.1-2.7.4-5.7.7-42.2 4.6-77.2 41.6-78.9 83.5l-.2 5.9h18c12.5 0 18.1-.3 18.2-1.1 1.6-21.3 12.2-37.6 30.4-46.7 24.6-12.2 55.2-3 69.1 20.8 4.3 7.2 7.1 16.6 7.3 24l.1 3.1 18.3-.1 18.2-.2v-3c0-1.7-.3-5.3-.6-8-3-21.7-11.3-38.3-26.9-53.5-16.2-15.7-36.8-24.3-60.8-25.3-3.4-.2-6.4-.2-6.5-.1zM680.7 431.6c-.1.1-2.7.5-5.9.8-18.2 2.1-38.4 12-51.9 25.5-11.6 11.5-21.3 29.2-24.4 44.6-.9 4.5-2 13.7-2 16.5v2.5l18.3.2 18.2.2.1-2.7c.5-12.9 6-25.2 15.8-35 27-27 72-18 86.8 17.3 2.3 5.3 4 13.5 3.9 17.7l-.2 2.5h18.3c16.3.1 18.3-.1 18.4-1.6.7-12.3-4.6-31.5-12.5-44.6-13.1-22-36.6-38.2-61.6-42.5-5.5-.9-20.7-1.9-21.3-1.4z"/></svg>